HIERARCHY
ROOT Hips
{
  OFFSET -31.5692 30.0904 122.763
  CHANNELS 6 Xposition Yposition Zposition Zrotation Xrotation Yrotation
  JOINT LeftUpLeg
  {
    OFFSET 8.64259 1.95398 -2.38835
    CHANNELS 3 Zrotation Xrotation Yrotation
    JOINT LeftLeg
    {
      OFFSET 43.7702 0 0
      CHANNELS 3 Zrotation Xrotation Yrotation
      JOINT LeftFoot
      {
        OFFSET 40.6238 0 0
        CHANNELS 3 Zrotation Xrotation Yrotation
        JOINT LeftToeBase
        {
          OFFSET 12.7242 0 0
          CHANNELS 3 Zrotation Xrotation Yrotation
          End Site
          {
            OFFSET 0 0 0
          }
        }
      }
    }
  }
  JOINT RightUpLeg
  {
    OFFSET -8.2249 1.95398 -2.59336
    CHANNELS 3 Zrotation Xrotation Yrotation
    JOINT RightLeg
    {
      OFFSET 43.5653 0 0
      CHANNELS 3 Zrotation Xrotation Yrotation
      JOINT RightFoot
      {
        OFFSET 40.6238 0 0
        CHANNELS 3 Zrotation Xrotation Yrotation
        JOINT RightToeBase
        {
          OFFSET 12.7242 0 0
          CHANNELS 3 Zrotation Xrotation Yrotation
          End Site
          {
            OFFSET 0 0 0
          }
        }
      }
    }
  }
  JOINT Spine
  {
    OFFSET 0.165834 0.87714 6.61349
    CHANNELS 3 Zrotation Xrotation Yrotation
    JOINT Spine1
    {
      OFFSET 7.38963 1.71661e-005 0
      CHANNELS 3 Zrotation Xrotation Yrotation
      JOINT Spine2
      {
        OFFSET 11.9445 1.14441e-005 0
        CHANNELS 3 Zrotation Xrotation Yrotation
        JOINT Spine3
        {
          OFFSET 14.7254 4.19617e-005 0
          CHANNELS 3 Zrotation Xrotation Yrotation
          JOINT Spine4
          {
            OFFSET 10.9679 0 0
            CHANNELS 3 Zrotation Xrotation Yrotation
            JOINT RightShoulder
            {
              OFFSET 2.46616 -1.6653 3.69651
              CHANNELS 3 Zrotation Xrotation Yrotation
              JOINT RightArm
              {
                OFFSET 13.0012 0 0
                CHANNELS 3 Zrotation Xrotation Yrotation
                JOINT RightForeArm
                {
                  OFFSET 28.7848 1.62311e-005 0
                  CHANNELS 3 Zrotation Xrotation Yrotation
                  JOINT RightHand
                  {
                    OFFSET 26.5688 1.62095e-005 0
                    CHANNELS 3 Zrotation Xrotation Yrotation
                    End Site
                    {
                      OFFSET 0 0 0
                    }
                  }
                }
              }
            }
            JOINT LeftShoulder
            {
              OFFSET 2.38034 -1.29275 -3.7523
              CHANNELS 3 Zrotation Xrotation Yrotation
              JOINT LeftArm
              {
                OFFSET 16.3182 6.07031e-005 0
                CHANNELS 3 Zrotation Xrotation Yrotation
                JOINT LeftForeArm
                {
                  OFFSET 27.0901 0 0
                  CHANNELS 3 Zrotation Xrotation Yrotation
                  JOINT LeftHand
                  {
                    OFFSET 24.5451 1.51738e-005 0
                    CHANNELS 3 Zrotation Xrotation Yrotation
                    End Site
                    {
                      OFFSET 0 0 0
                    }
                  }
                }
              }
            }
            JOINT Neck
            {
              OFFSET 5.0226 -0.0266342 0
              CHANNELS 3 Zrotation Xrotation Yrotation
              JOINT Head
              {
                OFFSET 6.69364 2.86102e-005 0
                CHANNELS 3 Zrotation Xrotation Yrotation
                End Site
                {
                  OFFSET 0 0 0
                }
              }
            }
          }
        }
      }
    }
  }
}
MOTION
Frames:	9
Frame Time:	0.0416667
-70.3034 98.8786 87.3475 -102.995 -44.5231 -99.5187 -173.555 5.8399 90.253 -29.9545 15.518 0.649503 74.1113 8.30393 -2.92948 19.4803 -7.1397 5.81325 169.994 3.93894 85.4345 -58.2278 -20.9225 -3.33895 63.3928 -1.35291 -0.596874 29.2549 -0.571697 1.78824 1.11781 8.20942 -89.8382 10.4554 2.30092 0.118193 -1.21349 2.30386 0.0167592 -23.7635 2.15896 0.80457 -3.75083 2.15896 0.80457 90.0468 -29.2317 -106.963 31.0173 -3.74639 -9.02582 1.95073 -25.7399 -18.0093 -27.5594 0.0689453 -9.59192 -85.03 -47.9822 85.9251 -26.8304 6.52845 17.0582 -3.00948 16.689 -1.96684 8.44219 -0.542079 -13.938 -1.53494 -5.3454 -11.1888 -1.67206 -3.95004 -3.91043 
-66.1105 97.9784 82.5304 -101.307 -44.7983 -98.8734 -176.011 12.3876 88.6259 -31.9967 13.5427 1.6482 72.9403 7.22067 -4.17632 16.0773 -11.0343 9.53668 173.431 -4.27806 84.4337 -53.9149 -37.5541 -10.336 65.575 -3.6767 -0.245305 32.7277 -2.11043 1.79879 1.62114 8.01135 -89.8701 10.8555 3.2879 -0.0491179 -0.811258 3.28255 -0.193937 -23.3779 3.1505 0.942309 -3.36526 3.15051 0.942308 89.3035 -28.8972 -108.589 29.7594 -4.35445 -11.6265 1.78833 -27.6612 -18.4999 -25.5758 0.0337556 -10.1471 -83.6976 -48.7225 88.0647 -31.376 5.24957 20.5646 -1.93628 13.5622 -5.0423 4.76859 -0.272616 -14.7087 -0.511162 -6.34297 -8.93134 -1.573 -5.15722 -5.08454 
-60.9878 97.1184 75.1497 -98.4691 -44.8591 -97.2979 -177.952 19.6329 88.5879 -29.6568 13.62 2.2515 64.9079 2.36596 -3.74713 17.5867 -9.35633 8.09488 177.21 -7.15315 86.3912 -46.5109 -43.2729 -15.7223 73.0398 -9.57629 -2.46121 35.2307 -3.38593 3.08522 1.9559 7.9641 -89.9711 10.9559 3.90742 -0.312545 -0.709218 3.88987 -0.484477 -23.2902 3.82041 0.878023 -3.27754 3.82042 0.878025 89.334 -26.9909 -109.347 30.0556 -5.94905 -17.346 2.97717 -24.3392 -17.6923 -24.667 0.224157 -10.5871 -82.5744 -51.3886 90.0269 -33.0941 4.78561 19.1676 -2.12621 11.0844 -3.92856 2.8509 -0.218992 -16.1081 2.61391 -5.93815 -2.25293 -2.29304 -5.5848 -7.66719 
-55.4658 96.6048 66.0341 -96.549 -50.5823 -96.199 -177.821 22.3446 89.1105 -17.8539 22.2912 0.804188 61.6426 1.35066 -1.6386 23.3815 -6.79371 10.2144 176.741 0.3383 86.9247 -44.1203 -37.992 -11.328 79.034 -13.4718 -2.52659 31.9026 -1.80617 2.17009 1.79191 8.24974 -90.1501 10.3884 3.50097 -0.606394 -1.27809 3.47086 -0.760072 -23.8508 3.52115 0.475157 -3.83818 3.52115 0.475149 88.6049 -26.3015 -111.159 28.3528 -7.0927 -23.1565 3.55001 -21.625 -18.1808 -24.5839 0.455307 -11.2325 -82.1721 -52.1543 90.6869 -33.1477 4.95706 15.6438 -1.89167 9.29792 -4.3993 5.03483 -0.711603 -18.2592 9.55423 -4.08938 4.67367 -3.03549 -5.08966 -8.57992 
-51.7401 97.7436 58.2623 -93.1176 -62.0677 -94.3495 -175.781 22.4175 87.1299 -8.69697 -6.71495 -2.94926 62.2966 3.36675 -3.43239 23.685 -6.39949 9.73183 174.146 4.80145 88.2901 -37.0901 -31.0983 -5.37159 78.3165 -12.8276 -3.49322 28.2111 -0.0326725 1.43745 1.59359 8.19958 -90.1996 10.4865 3.0827 -0.670235 -1.18101 3.05022 -0.805396 -23.7455 3.14148 0.288154 -3.73286 3.14147 0.288151 88.2045 -27.5896 -111.379 29.4116 -8.4032 -23.198 4.40641 -21.8372 -17.8869 -23.4336 0.321803 -10.8284 -82.7283 -49.4692 89.6245 -32.6263 4.74657 12.6045 -1.76461 7.04963 -5.12297 6.96211 -1.15085 -19.4738 13.4788 -2.09819 5.85529 -4.92506 -3.47893 -5.11836 
-49.1472 100.378 52.4364 -89.5756 -76.9245 -93.6834 -174.461 23.9215 83.7266 -24.0576 -13.6986 -3.59693 65.889 3.02066 -1.33725 17.3894 -9.16497 7.4568 173.3 5.18729 87.8975 -26.4998 -17.8768 -2.77246 73.7474 -9.2007 -3.52313 25.2727 1.4084 0.996107 1.30278 8.03973 -89.9109 10.7989 2.63526 -0.0679428 -0.86933 2.62972 -0.183937 -23.4249 2.53376 0.727729 -3.4123 2.53377 0.72773 88.2396 -28.3062 -110.979 32.6989 -10.9275 -21.4516 6.62095 -27.6796 -15.0167 -21.0424 0.171155 -12.017 -83.1306 -46.2786 88.6855 -31.6903 4.21831 10.4819 -2.08163 3.54048 -5.03584 12.0333 -2.13059 -20.8081 13.7434 0.870573 5.94699 -5.84389 -0.634772 -2.66439 
-46.6453 101.308 48.7769 105.073 -87.6383 98.7396 -172.29 18.3428 86.002 -34.3036 -0.787736 -3.15656 69.9633 6.08573 0.604904 15.2129 -9.69402 5.98768 171.513 5.01443 85.6704 -22.6275 -4.63351 -1.30198 72.1097 -6.98296 -1.89053 24.1287 2.12614 0.251624 1.12663 7.92875 -89.5926 11.0106 2.43158 0.577811 -0.658151 2.45466 0.470171 -23.2072 2.14547 1.28217 -3.19459 2.14548 1.28218 88.9181 -28.7591 -109.417 36.5429 -13.0452 -17.3961 5.79984 -26.9311 -18.7395 -19.9829 0.351868 -13.3898 -82.7813 -44.9491 89.1027 -30.75 2.72251 10.9589 -0.848534 8.35697 -6.2604 12.8356 -1.96196 -19.1506 8.85593 5.32465 5.94487 -4.97308 3.92672 0.77758 
-43.0977 101.402 45.9402 95.3535 -71.882 89.8397 -170.297 12.1753 93.4394 -29.7616 -9.04894 -1.89156 70.9234 7.06026 2.57779 10.2428 -12.0811 4.87284 169.206 2.63684 84.3369 -18.8198 6.6329 0.800452 69.3993 -5.63276 -0.744735 26.9898 1.1864 -1.56905 0.87866 7.73058 -89.686 11.4105 1.89509 0.435214 -0.25917 1.91239 0.351358 -22.8028 1.67665 0.984782 -2.79014 1.67665 0.984776 88.9747 -29.8152 -108.863 39.1582 -12.8307 -11.492 2.46463 -22.2878 -26.7384 -21.9077 1.08222 -16.0072 -82.2608 -45.3585 89.9782 -32.143 1.76371 14.0442 -0.659095 10.8577 -5.33511 10.9662 -1.56089 -18.543 1.77811 11.6499 6.78547 -4.64386 10.4181 6.31372 
-37.6783 100.956 42.0383 94.3992 -53.1941 88.653 -168.889 9.54882 95.4015 -20.9582 -27.0694 -3.3129 70.7255 7.4212 1.91809 11.0295 -11.2905 4.33189 165.528 1.63714 80.7347 -20.0543 19.8291 3.21691 67.414 -3.71227 1.25754 29.2732 0.451024 -3.39965 0.635225 7.67133 -89.834 11.5307 1.34144 0.193151 -0.13958 1.34867 0.133891 -22.6794 1.22137 0.587436 -2.66677 1.22137 0.587439 89.3562 -29.9789 -108.041 40.7506 -9.84592 -8.37778 -0.447344 -21.2628 -29.784 -23.9535 1.54653 -17.3832 -82.4751 -46.2412 89.7187 -33.7448 2.73066 14.5401 -1.19576 12.9189 -3.02863 6.09464 -0.598374 -16.2884 -2.18124 15.5728 9.00837 -6.30065 14.1847 9.18159 
